<svg xmlns="http://www.w3.org/2000/svg" version="1.1" xmlns:xlink="http://www.w3.org/1999/xlink" xmlns:svgjs="http://svgjs.com/svgjs" width="1920" height="1080" preserveAspectRatio="none" viewBox="0 0 1920 1080"><g mask="url(&quot;#SvgjsMask1242&quot;)" fill="none"><rect width="1920" height="1080" x="0" y="0" fill="url(#SvgjsLinearGradient1243)"></rect><circle r="14.07" cx="589.4000000000001" cy="745.1800000000001" filter="url(#SvgjsFilter1244)" fill="rgba(51, 121, 194, 0.58)"></circle><circle r="12.86" cx="1761.6799999999998" cy="598.01" filter="url(#SvgjsFilter1244)" fill="rgba(51, 121, 194, 0.58)"></circle><circle r="10" cx="1803.47" cy="1074.97" filter="url(#SvgjsFilter1244)" fill="rgba(51, 121, 194, 0.58)"></circle><circle r="17.69" cx="275.83" cy="589.09" filter="url(#SvgjsFilter1244)" fill="rgba(51, 121, 194, 0.58)"></circle><circle r="13.5" cx="724.03" cy="989.21" filter="url(#SvgjsFilter1244)" fill="rgba(51, 121, 194, 0.58)"></circle><circle r="16.935" cx="950.555" cy="126.575" filter="url(#SvgjsFilter1244)" fill="rgba(51, 121, 194, 0.58)"></circle><circle r="10.675" cx="455.77500000000003" cy="916.7249999999999" filter="url(#SvgjsFilter1244)" fill="rgba(51, 121, 194, 0.58)"></circle><circle r="17.075" cx="1558.605" cy="997.5350000000001" filter="url(#SvgjsFilter1244)" fill="rgba(51, 121, 194, 0.58)"></circle><circle r="11.215" cx="977.135" cy="617.135" filter="url(#SvgjsFilter1244)" fill="rgba(51, 121, 194, 0.58)"></circle><circle r="16.025" cx="875.125" cy="456.945" filter="url(#SvgjsFilter1244)" fill="rgba(51, 121, 194, 0.58)"></circle><circle r="15.355" cx="950.445" cy="765.235" filter="url(#SvgjsFilter1244)" fill="rgba(51, 121, 194, 0.58)"></circle><circle r="14.025" cx="1160.775" cy="871.385" filter="url(#SvgjsFilter1244)" fill="rgba(51, 121, 194, 0.58)"></circle><circle r="10.335" cx="820.755" cy="763.7950000000001" filter="url(#SvgjsFilter1244)" fill="rgba(51, 121, 194, 0.58)"></circle><circle r="13.765" cx="1559.305" cy="329.365" filter="url(#SvgjsFilter1244)" fill="rgba(51, 121, 194, 0.58)"></circle><circle r="9.46" cx="696.96" cy="430.26" filter="url(#SvgjsFilter1244)" fill="rgba(51, 121, 194, 0.58)"></circle><circle r="12.655" cx="831.915" cy="246.495" filter="url(#SvgjsFilter1244)" fill="rgba(51, 121, 194, 0.58)"></circle><circle r="13.785" cx="1895.625" cy="427.27500000000003" filter="url(#SvgjsFilter1244)" fill="rgba(51, 121, 194, 0.58)"></circle><circle r="9.69" cx="393.01" cy="647.72" filter="url(#SvgjsFilter1244)" fill="rgba(51, 121, 194, 0.58)"></circle><circle r="14.815" cx="1853.315" cy="830.5450000000001" filter="url(#SvgjsFilter1244)" fill="rgba(51, 121, 194, 0.58)"></circle><circle r="13.47" cx="1598" cy="354.36" filter="url(#SvgjsFilter1244)" fill="rgba(51, 121, 194, 0.58)"></circle><path d="M944 479L882.2 450.4 874.1 426.9 895 436.6C896.9 438.3 899.2 436.9 900.9 434.9 901.3 433 900.5 430.1 898.6 429.6L870.2 415.7 861.5 392.8 885.5 397.4 903.5 423.8C903.5 423.8 904.2 424.3 904.2 424.3 905.5 425.4 907.9 425.2 909.7 424.4 911.3 422.5 911.8 420.6 910.3 418.3L897.2 399.5 921.2 404.1 960.5 459.5C960.5 459.5 960.6 460.7 960.6 460.7 961.9 461.8 964.3 461.5 966.1 460.8 968.4 459.4 968.7 456.3 966.8 454.7L932.9 406.1 962.4 410.8 977.6 432.6C977.6 432.6 977.6 432.6 978.2 433.1 979.5 434.2 981.4 434.7 983.1 433.9 984.8 431.9 985.8 429.4 984.4 427.1L974.1 412.9 995.6 416.5C998.1 417.5 999.7 415.5 1000.2 413.7 1001.2 411.2 999.8 408.9 996.7 408.5L975.8 404.2 990.1 395.1C991.8 393.2 992.8 390.7 990.8 389 989.4 386.7 987.5 386.3 985.2 387.7L963.5 402.9 934.6 397.5 983.7 363C985.5 362.2 985.8 359.2 984.4 356.9 983.1 355.8 980.6 354.8 978.3 356.2L922.9 395.5 898.9 390.9 917.8 377.7C920.1 376.3 919.9 373.9 918.5 371.6 917.7 369.9 914.6 369.5 912.9 370.3L887.2 388.8 862.7 384.9 878.6 365.9 909.9 363.3C912.3 363.1 913.9 361.1 913.7 358.7 914.2 356.8 911.5 354.6 909.1 354.8L886.3 356.8 902.2 337.9 970.2 332.7C972.6 332.4 974.3 330.5 974.1 328.1 973.9 325.7 971.9 324 969.5 324.2L909.9 328.7 928.6 306.5 955.1 304.3C957.5 304.1 959.1 302.1 958.9 299.7 958.7 297.3 956.8 295.7 954.4 295.9L936.9 296.8 950.6 280.4C952.3 278.5 952.1 276.1 950.1 274.4 948.1 272.8 945.7 273 944.1 274.9L930.3 291.3 928.9 274.4C928.7 272 926.7 270.4 924.3 270.6S920.3 272.7 920.5 275.1L922.6 300.4 903.4 323.2 898.4 264.3C898.2 261.9 896.2 260.3 893.8 260.5 891.4 260.7 889.7 262.6 889.9 265L895.7 332.4 879.8 351.3 877.8 328.5C877.6 326.1 875.6 324.4 873.2 324.6 870.8 324.8 869.2 326.8 869.4 329.2L872.1 360.4 856.7 378.7 848.7 356.4 862 327.4C862.4 325.5 861.6 322.6 859.7 322.1 857.2 321.1 855.4 321.9 853.8 323.9L844.1 344.7 836.1 322.3 864.7 260.5C865.7 258 865 256.3 863 254.6 860.5 253.6 858.2 255.1 857.1 256.4L831.5 310.6 821.8 282.4 832.5 259.1C834.1 257.1 832.7 254.8 830.8 253.2 828.9 252.7 826 253.6 825 256.1L817.8 271.2 810 251.3C809.8 248.9 807.3 247.9 804.4 248.8 802.6 249.5 801.6 252 802.4 253.8L809.6 274.4 793.8 266.6C791.3 265.6 789 267 788.5 268.9 786.9 270.9 787.6 272.6 788.9 273.7 789.6 274.3 789.6 274.3 790.2 274.8L813.6 285.5 823.3 313.8 769.6 288.7C767.7 287 765.4 288.4 763.7 290.4 763.3 292.3 764 294 765.3 295.1 766 295.7 766 295.7 766 295.7L827.9 325.5 835.9 347.8 815 338.1C812.5 337.1 810.8 337.8 809.1 339.8 808.7 341.7 808.9 344.1 810.2 345.2 810.9 345.7 810.9 345.7 811.5 346.3L840.5 359.5 848.5 381.9 825.1 377.8 806.6 352.1C805.2 349.8 802.1 349.5 800.3 350.2 798.7 352.2 797.7 354.7 799.7 356.4L812.8 375.2 788.9 371.8 749.5 315.2C748.7 313.5 745.7 313.1 743.9 313.9 742.3 315.9 741.3 318.4 742.7 320.7L776.5 369.2 747.6 363.9 733.1 342.7C731.7 340.4 728.6 340 727 342 725.2 342.8 724.2 345.3 725.6 347.6L735.9 361.8 714.4 358.2C712.6 357.8 710.3 359.2 709.3 361.7 709.4 362.9 710.1 364.6 711.4 365.7 711.4 365.7 712.1 366.3 712.7 366.8L734.2 370.4 720 380.8C718.2 381.5 717.9 384.6 718.7 386.3 719.3 386.9 719.3 386.9 719.3 386.9 721.3 388.5 723.7 388.3 724.8 387L745.9 372.5 775.4 377.2 726.3 411.7C724.6 413.7 724.2 415.5 725.6 417.8 725.6 417.8 726.2 418.4 726.2 418.4 727.6 419.5 729.4 419.9 731.7 418.5L787.7 379.8 811.1 383.8 792.2 397C790.6 398.9 789.6 401.4 791.6 403.1 791 403.7 791.7 404.3 791.7 404.3 793 405.4 795.4 405.2 797.1 404.4L822.8 385.9 846.8 390.5 831.4 408.7 800.1 411.4C797.7 411.6 795.5 414.2 795.7 416.7 796.5 418.4 798.5 420.1 800.3 420.5L823.7 417.9 807.8 436.8 740.4 442.6C738 442.8 736.4 444.8 736.6 447.2 736.8 449.6 738.8 451.2 741.2 451L800.1 446 780.8 468.8 755.6 471C753.2 471.2 751.5 473.1 751.7 475.5S753.9 479.6 756.3 479.4L773.1 477.9 759.4 494.3C757.7 496.2 758 498.6 759.9 500.3 761.9 501.9 764.3 501.7 765.9 499.8L779.7 483.4 781.8 500.8C781.9 502 782 503.2 782.6 503.8 783.3 504.3 785.1 504.8 786.3 504.7 788.7 504.5 790.4 502.5 790.2 500.1L787.4 474.3 806.6 451.5 812.3 510.9C812.4 512.1 812.5 513.3 813.2 513.9 813.8 514.4 815.7 514.9 816.9 514.8 819.3 514.6 820.9 512.6 820.7 510.2L814.3 442.3 830.2 423.4 831.6 446.9C831.7 448.1 833.1 449.2 833.7 449.7 834.4 450.3 835 450.8 836.2 450.7 838.6 450.5 840.8 447.9 840.1 446.2L837.9 414.2 853.3 396 861.9 418.8 848 447.3C847.6 449.1 847.8 451.6 849.1 452.7 849.7 453.2 849.7 453.2 850.3 452.6 852.3 454.2 855.2 453.3 856.2 450.8L865.9 430 874.6 452.9 844.7 514.8C844.3 516.7 845 518.4 846.3 519.5 847 520.1 847 520.1 847 520.1 849.5 521.1 851.9 520.8 852.9 518.3L878.5 464.1 888.2 492.3 877.5 515.6C876.5 518.1 877.3 519.9 878.6 521 878.6 521 879.2 521.5 879.2 521.5 881.7 522.5 884 521.1 885.1 519.8L892.2 503.5 899.4 524C900.1 524.6 900.7 525.1 901.4 525.7 902 526.2 903.9 526.7 905.1 526.6 907.4 525.2 909 523.2 907.6 520.9L900.4 500.3 916.2 508.1C918.7 509.1 921 507.7 922.1 506.3 923.1 503.8 921.7 501.5 919.8 499.9L896.4 489.2 886.2 461.6 939.8 486.7C942.3 487.7 945.3 486.8 945.7 484.9 946.7 482.4 946.5 480 944 479Z" fill="rgba(51, 121, 194, 0.58)"></path><path d="M1805.3 869.1L1784.8 886.3 1781 868.7C1780.8 866.8 1778.7 865.1 1776 865.1 1773.8 866.1 1772.2 868.3 1772.4 870.2L1776.9 893.4 1757.7 909.3 1749 862C1748.3 859 1746.1 857.3 1744 858.4 1741.3 858.3 1739.6 860.5 1740.4 863.4L1750.1 915.7 1733.1 930.5 1684 913.3 1680 893.8 1723.5 857.5C1723.8 856.7 1724 855.9 1724.3 855.1 1724.6 854.3 1724.4 852.4 1723.8 851.3 1722 848.8 1719.3 848.8 1717.6 850.9L1678 884 1673.8 859.9 1693.5 842.4C1694.3 842.7 1694.6 841.9 1694.9 841.1 1695.4 839.5 1695.2 837.6 1693.9 836.2 1692.5 834.9 1689.8 834.8 1687.7 835.9L1671.8 850.2 1666 820.1C1665.8 818.3 1663.7 816.6 1661 816.6 1658.8 817.6 1657.1 819.7 1657.4 821.6L1662.9 849.8 1646 843.8C1643.6 843 1641.1 844.8 1640.5 846.5 1639.7 848.9 1640.4 851.9 1642.9 852.7L1664.6 860.3 1668.8 884.4 1623.7 868.6C1621.3 867.7 1619.1 868.8 1618.3 871.2 1617.4 873.6 1618.5 875.8 1620.9 876.6L1670.8 894.2 1675.3 914.8 1635.4 948.7 1616.9 942.2 1606.7 888.8C1606.7 886.1 1603.8 884.2 1601.6 885.2 1598.9 885.2 1598 887.6 1598 890.3L1607.2 938.8 1583.9 930.6 1579.7 906.5C1579.4 904.6 1576.5 902.6 1574.6 902.9S1570.8 906.1 1570.7 908.8L1574.2 927.2 1546 917.3C1543.6 916.4 1541.1 918.3 1540.3 920.7 1539.7 922.3 1540.5 925.3 1542.9 926.1L1571.1 936 1556.6 949C1555.2 950.3 1554.4 952.8 1556.2 955.2 1557.5 956.6 1561 956.9 1562.4 955.6L1580.7 939.4 1604.1 947.6 1566.6 979.7C1565 981.8 1564.1 984.2 1566 986.7 1567.3 988.1 1570.8 988.4 1572.2 987.1L1613.8 951 1632.3 957.5 1642.2 1009 1625.8 1022.2 1575.9 1004.7C1573.5 1003.8 1571.3 1004.9 1570.5 1007.3 1569.6 1009.7 1570.4 1012.7 1572.8 1013.5L1617.9 1029.3 1599.6 1045.5 1577.8 1037.9C1575.4 1037 1573.2 1038.1 1572.4 1040.5 1571.5 1042.9 1572.6 1045.1 1575 1045.9L1591.9 1051.9 1570 1070.4C1568.6 1071.7 1568.3 1075.2 1569.6 1076.6 1571.8 1078.3 1574.2 1079.1 1575.9 1077L1598.8 1057.9 1602.5 1078.2C1603.6 1080.4 1605.7 1082 1607.6 1081.8 1609.5 1081.6 1610.9 1080.2 1611.4 1078.6 1611.4 1078.6 1611.7 1077.8 1611.2 1076.7L1606.8 1050.8 1625.1 1034.6 1635.4 1085.2C1635.3 1087.9 1637.5 1089.6 1640.4 1088.8 1641.5 1088.3 1642.6 1087.8 1643.2 1086.2 1643.5 1085.3 1643.7 1084.5 1644 1083.7L1632.8 1028.2 1648.1 1015.5 1697.2 1032.8 1701.2 1055 1660.9 1089.7C1658.5 1091.5 1658.4 1094.2 1660.6 1095.9 1661.6 1098.1 1664.3 1098.1 1666.8 1096.2L1703.2 1064.7 1708.2 1089.1 1690.1 1104.4C1688.7 1105.8 1688.7 1108.5 1689.7 1110.6 1691.9 1112.3 1694.3 1113.1 1695.9 1111L1709.9 1099.6 1715.1 1125.9C1715.1 1128.6 1717.5 1129.4 1720.2 1129.5 1721.3 1129 1722.7 1127.6 1723.2 1126 1723.2 1126 1723.5 1125.2 1723.8 1124.4L1718.3 1096.3 1738.4 1103.3C1740 1103.9 1743 1103.1 1743.9 1100.7 1744.7 1098.3 1742.9 1095.8 1741.3 1095.3L1716.3 1086.5 1711.3 1062.1 1760.4 1079.4C1762.8 1080.2 1765.3 1078.4 1766.1 1076S1765.9 1071.4 1763.5 1070.5L1709.6 1051.6 1705.9 1031.3 1745.8 997.4 1766.7 1004.7 1776.7 1058.9C1777.7 1061 1779.8 1062.7 1782.5 1062.7 1783.6 1062.2 1785 1060.9 1785.6 1059.3 1785.8 1058.5 1786.1 1057.7 1785.6 1056.6L1776.4 1008.1 1799.7 1016.3 1804.8 1040.7C1805 1042.6 1807.1 1044.2 1809.8 1044.3 1812 1043.2 1813.7 1041.1 1813.4 1039.2L1809.4 1019.7 1835.2 1028.8C1836.8 1029.3 1840 1027.8 1840.6 1026.2 1841.5 1023.7 1839.9 1020.5 1838.3 1019.9L1812.5 1010.9 1827.5 999C1827.8 998.2 1828.1 997.3 1828.4 996.5 1829 994.9 1828.7 993 1828.2 992 1826.1 990.3 1823.4 990.3 1821.2 991.3L1802.9 1007.5 1779.5 999.3 1817 967.2C1819.4 965.4 1819.5 962.7 1818.2 961.3 1816.3 958.8 1813.6 958.8 1811.4 959.8L1769.8 995.9 1748.9 988.5 1738.9 937.1 1754.5 923.6 1808.5 942.5C1810.9 943.4 1813.1 942.3 1813.9 939.9 1814.8 937.5 1813.7 935.3 1811.3 934.5L1762.2 917.2 1781.3 901.3 1806.3 910.1C1807.9 910.7 1811.2 909.1 1812 906.7 1812.9 904.3 1811 901.8 1809.4 901.2L1789.3 894.2 1811.2 875.6C1811.4 874.8 1811.4 874.8 1811.7 874 1812.3 872.4 1812.1 870.5 1811.5 869.4 1809.4 867.8 1806.7 867.7 1805.3 869.1ZM1739.2 985.1L1740 990.8 1736.1 994 1703.9 1021.5 1700 1024.7 1695.2 1023 1655.7 1009.2 1650.9 1007.5 1649.9 1002.6 1641.9 960.9 1640.9 956 1645 952.1 1677.1 925.3 1681.2 921.3 1686 923 1725.4 936.9 1730.3 938.6 1731 944.2 1739.2 985.1Z" fill="rgba(51, 121, 194, 0.58)"></path><path d="M1114 983.5L1077.1 923.1 1092.4 861.9 1137.8 905.7 1138.6 976.5C1138.6 976.5 1138.8 977.3 1138.8 977.3 1139.3 978.9 1141.4 980.1 1143.3 980.4 1146 980.6 1148 978.2 1147.3 975.8L1146.4 913.9 1168.4 935.1 1169.2 962.4C1169.2 962.4 1169.4 963.2 1169.4 963.2 1169.9 964.8 1172 966 1173.9 966.3 1176.6 966.5 1178.6 964.1 1177.9 961.7L1177.8 943 1193.9 958.8C1195.2 960.2 1198.7 960.1 1200.1 958.8 1202.3 957.3 1201.4 954 1200.1 952.6L1184 936.8 1202.7 936.8C1205.4 936.9 1207.4 934.5 1206.7 932.1 1206.8 929.4 1204.4 927.4 1202 928.1L1174.7 928.8 1153.4 907.4 1215.3 906.5C1218 906.6 1220 904.3 1219.3 901.8 1219.4 899.1 1217.1 897.1 1214.6 897.8L1143.8 898.6 1098.4 854.8 1159.9 837.2 1222.2 871.7C1224.3 872.9 1226.8 872.2 1227.9 870.1 1229.1 867.9 1228.4 865.5 1226.3 864.3L1171.4 833.9 1200.9 825.4 1224.1 838.3C1226.2 839.5 1228.7 838.8 1229.9 836.6 1231 834.5 1230.3 832.1 1228.2 830.9L1212.4 822.1 1235.4 815.5C1238.1 815.7 1239 812.7 1238.3 810.3 1237.6 807.8 1235.5 806.6 1233 807.3L1211.7 813.5 1220.5 797.6C1221.6 795.5 1220.9 793.1 1218.8 791.9S1214.2 791.4 1213.1 793.5L1200.2 816.8 1170.7 825.2 1201.1 770.3C1202.3 768.2 1201.5 765.8 1199.4 764.6 1197.3 763.4 1194.9 764.1 1193.7 766.2L1159.2 828.5 1098.5 845.9 1113.8 784.7 1172.8 749.2C1175 747.6 1175.2 744.9 1174.4 742.5 1172.9 740.2 1170.2 740.1 1167.8 740.8L1114.8 772.9 1122.3 743.2 1145.8 729.4C1148.1 727.8 1148.2 725.1 1147.5 722.7 1145.9 720.5 1143.2 720.3 1141.6 720.8L1125.8 730.7 1131 708.8C1131.4 706.9 1130.4 703.6 1127.7 703.5 1125.1 703.4 1122.6 704.1 1122.5 706.8L1117.2 728.7 1107.4 712.9C1105.8 710.7 1103.1 710.5 1101.5 711 1100.1 712.3 1098.9 714.4 1099.4 716.1 1099.4 716.1 1099.6 716.9 1099.6 716.9L1113.5 740.4 1106 770.1 1074 717.1C1072.4 714.9 1069.7 714.8 1068.1 715.3 1066.7 716.6 1065.5 718.7 1066 720.3 1066 720.3 1066.2 721.1 1066.2 721.1L1103.1 781.6 1087.8 842.8 1042.4 799 1041.6 728.2C1041.7 725.5 1039.4 723.5 1036.9 724.2 1034.2 724.1 1032.2 726.5 1033 728.9L1033.8 790.8 1011.8 769.6 1011 742.3C1011.2 739.6 1008.8 737.6 1006.4 738.3 1003.7 738.2 1001.7 740.6 1002.4 743L1002.4 761.7 986.3 745.8C985 744.4 981.5 744.6 980.1 745.9 978.7 747.1 978.4 749 978.8 750.7 979.1 751.5 979.3 752.3 980.3 752.9L996.4 768.7 977.8 768.7C975.1 768.6 973.1 770.9 973.8 773.4 973.8 773.4 974 774.2 974 774.2 974.5 775.9 976.6 777 978.5 777.4L1005.8 776.6 1027.9 797.8 966 798.7C963.3 798.6 961.3 801 962 803.4 962 803.4 962.2 804.2 962.2 804.2 962.7 805.9 964.8 807.1 966.7 807.4L1037.5 806.6 1082.9 850.4 1022.2 867.8 959.9 833.3C957.8 832.1 955.4 832.9 954.2 835 953 837.1 953.7 839.5 955.8 840.7L1009.9 871.4 980.4 879.8 957.2 867C955 865.8 952.6 866.5 951.4 868.6S950.9 873.2 953.1 874.3L968.9 883.1 947.6 889.2C945.1 889.9 943.9 892.1 944.6 894.5 945.3 897 947.5 898.1 949.9 897.4L971.2 891.3 962.5 907.2C961.9 908.2 961.3 909.3 961.8 910.9S963.3 913.1 964.4 913.7C966.5 914.9 968.9 914.2 970.1 912.1L983 888.8 1012.5 880.4 982.1 935.3C981.5 936.3 980.9 937.4 981.4 939 981.6 939.8 982.9 941.2 984 941.8 986.1 943 988.5 942.3 989.7 940.2L1024.2 877.9 1084.9 860.5 1069.6 921.7 1009.2 958.6C1007.8 959.9 1006.6 962 1007.1 963.6 1007.1 963.6 1007.3 964.4 1007.3 964.4 1008.8 966.7 1011.5 966.8 1013.2 966.3L1066.1 934.2 1058.7 963.9 1035.1 977.8C1033.7 979 1032.5 981.2 1033 982.8 1033 982.8 1033.2 983.6 1033.2 983.6 1034.8 985.8 1037.5 986 1039.1 985.5L1054.9 975.6 1049.7 997.5C1049.9 998.4 1049.3 999.4 1049.6 1000.2 1050 1001.9 1051.3 1003.3 1053.2 1003.6 1055.9 1003.8 1058.3 1003 1058.5 1000.4L1063.7 978.4 1073.6 994.2C1075.1 996.5 1077.8 996.6 1079.4 996.1 1081.7 994.6 1081.8 991.9 1081.3 990.2L1067.4 966.7 1074.9 937 1107 990C1108.5 992.2 1111.2 992.3 1112.8 991.9 1114.6 988.7 1115.5 985.8 1114 983.5Z" fill="rgba(51, 121, 194, 0.58)"></path><path d="M1668.4 654.5L1676.3 595.4 1693.9 582.6 1691.2 602.5C1690.3 604.5 1692.1 606.1 1694.1 607 1695.8 606.9 1698 605.4 1697.9 603.7L1702.2 576.3 1719.1 563.2 1721.4 584.5 1704.1 606.3C1704.1 606.3 1703.8 607 1703.8 607 1703.2 608.4 1704 610.3 1705.1 611.6 1707.2 612.5 1708.9 612.4 1710.4 610.6L1722.8 594.7 1725.2 616 1689.1 663.2C1689.1 663.2 1688.1 663.6 1688.1 663.6 1687.5 665 1688.3 666.9 1689.4 668.2 1691.1 669.7 1693.8 669.2 1694.7 667.2L1726.5 626.3 1730.2 652.2 1716 670.5C1716 670.5 1716 670.5 1715.7 671.2 1715.1 672.5 1715.2 674.2 1716.3 675.5 1718.3 676.3 1720.7 676.5 1722.3 674.8L1731.5 662.4 1734.1 681.4C1733.9 683.7 1735.9 684.6 1737.6 684.5 1740 684.7 1741.5 682.9 1741 680.2L1739.1 661.6 1750.5 671.3C1752.5 672.1 1754.9 672.3 1755.8 670.2 1757.3 668.5 1757.2 666.8 1755.4 665.2L1737.1 651 1734.1 625.5 1775.7 657.6C1776.8 658.9 1779.4 658.3 1781 656.6 1781.6 655.2 1781.7 652.8 1780 651.3L1732.8 615.2 1730.4 593.9 1746.3 606.3C1748.1 607.8 1750 607 1751.6 605.3 1752.8 604.2 1752.3 601.5 1751.2 600.3L1729.1 583.6 1726 562.1 1746 570.5 1756.3 595.9C1757.1 597.9 1759.2 598.8 1761.1 598 1762.8 597.8 1764 595.1 1763.2 593.1L1755.6 574.6 1775.6 583 1797.5 638.4C1798.3 640.4 1800.4 641.3 1802.4 640.5 1804.3 639.7 1805.2 637.6 1804.4 635.7L1785.2 587 1808.6 596.9 1817.3 618.4C1818.1 620.4 1820.2 621.2 1822.1 620.5 1824.1 619.7 1825 617.6 1824.2 615.6L1818.9 601.3 1836.1 608.5C1838.2 609.4 1840.1 608.6 1841 606.5 1841.9 604.5 1841.1 602.5 1839 601.6L1821.8 594.4 1835.5 588.8C1837.5 588 1838.3 585.9 1837.5 584S1834.7 581.2 1832.7 582L1812.2 590.3 1788.1 580.2 1836 560.7C1838 559.9 1838.8 557.8 1838.1 555.8 1837.3 553.9 1835.2 553 1833.2 553.8L1778.5 576.1 1758.5 567.7 1777.1 560.1C1779 559.3 1779.9 557.3 1779.1 555.3 1778.3 553.3 1776.3 552.5 1774.3 553.3L1748.9 563.6 1729.6 555.5 1746.2 543 1773.9 546.6C1775.5 546.5 1777.8 545 1777.7 543.3 1777.9 541 1776.8 539.7 1774.7 538.9L1754.8 536.1 1771.4 523.7 1830.5 531.6C1832.8 531.8 1834.1 530.7 1835 528.6 1835.1 526.3 1833.4 524.7 1832 524.1L1780 516.8 1801.1 501.4 1823.3 504.3C1825.4 505.1 1827 503.4 1827.8 501.3 1827.7 499.6 1826.2 497.4 1823.9 497.2L1809.4 495.1 1824 483.5C1826 482.7 1826.1 480.3 1824.7 478.1 1823.6 476.8 1821.2 476.6 1820 477.7L1804.6 489.1 1807 473.9C1807.2 471.5 1805.4 470 1803.7 470.1 1801.7 469.2 1800.4 470.3 1799.8 471.7 1799.5 472.3 1799.5 472.3 1799.2 473L1796.3 495.3 1775.2 510.7 1782.3 459.4C1783.2 457.3 1781.4 455.8 1779.3 454.9 1777.7 455 1776.4 456.1 1775.8 457.5 1775.5 458.2 1775.5 458.2 1775.5 458.2L1766.7 517.6 1750.1 530.1 1752.8 510.2C1753 507.8 1751.9 506.5 1749.8 505.7 1748.2 505.8 1746.2 506.6 1745.6 507.9 1745.3 508.6 1745.3 508.6 1745 509.3L1741.5 537 1724.9 549.4 1722.2 528.9 1738.8 506.7C1740.4 504.9 1739.9 502.3 1738.8 501 1736.7 500.2 1734.4 500 1733.5 502L1721.2 517.9 1717.8 497 1754.9 449.5C1756.2 448.4 1755.7 445.7 1754.6 444.5 1752.5 443.6 1750.1 443.4 1748.6 445.2L1716.8 486 1713.8 460.5 1727.7 442.8C1729.3 441.1 1728.7 438.4 1726.7 437.6 1725.6 436.3 1723.2 436.1 1721.7 437.9L1712.4 450.2 1709.9 431.3C1709.8 429.6 1708 428.1 1705.6 427.9 1704.7 428.3 1703.4 429.4 1702.8 430.7 1702.8 430.7 1702.5 431.4 1702.2 432.1L1704.8 451 1692.5 441.8C1691.4 440.5 1688.8 441 1687.5 442.1 1687.2 442.8 1687.2 442.8 1687.2 442.8 1686.3 444.8 1687.1 446.8 1688.5 447.4L1706.1 461.3 1709.8 487.2 1668.2 455.1C1666.2 454.2 1664.5 454.3 1663 456.1 1663 456.1 1662.7 456.8 1662.7 456.8 1662.1 458.1 1662.2 459.8 1664 461.4L1710.9 498.1 1713.5 518.7 1697.7 506.4C1695.6 505.5 1693.2 505.3 1692.4 507.4 1691.7 507.1 1691.4 507.8 1691.4 507.8 1690.8 509.1 1691.6 511.1 1692.7 512.4L1714.9 529 1717.2 550.3 1698 542.1 1687.6 516.7C1686.8 514.8 1684.1 513.6 1682.1 514.4 1680.9 515.5 1680 517.5 1680.1 519.2L1688.3 538.1 1668.4 529.7 1646.1 474.9C1645.3 472.9 1643.2 472.1 1641.3 472.9 1639.3 473.6 1638.5 475.7 1639.3 477.7L1658.8 525.6 1634.7 515.4 1626.3 494.9C1625.5 492.9 1623.5 492.1 1621.5 492.9S1618.7 495.7 1619.5 497.7L1625 511.4 1607.8 504.1C1605.8 503.3 1603.8 504.1 1603 506.1 1602.1 508.2 1602.9 510.1 1604.9 511L1622.1 518.3 1608.2 524.5C1607.2 524.9 1606.2 525.3 1605.9 526 1605.6 526.7 1605.7 528.4 1606.1 529.3 1606.9 531.3 1609 532.2 1610.9 531.4L1631.8 522.3 1655.8 532.5 1607.6 552.7C1606.7 553.1 1605.7 553.5 1605.4 554.1 1605.1 554.8 1605.2 556.5 1605.6 557.5 1606.4 559.4 1608.5 560.3 1610.4 559.5L1665.5 536.5 1685.4 545 1666.2 552.2C1665.2 552.6 1664.6 554 1664.3 554.7 1664 555.4 1663.7 556.1 1664.1 557 1664.9 559 1667.7 560.2 1668.9 559.1L1695.1 549 1714.3 557.1 1697.4 570.3 1670.1 566C1668.4 566.1 1666.4 566.9 1665.9 568.3 1665.6 569 1665.6 569 1666.3 569.3 1665.4 571.3 1666.9 573.6 1669.2 573.8L1689.1 576.5 1672.3 589.6 1612.8 580.8C1611.1 580.9 1609.9 582 1609.3 583.3 1609 584 1609 584 1609 584 1608.8 586.4 1609.6 588.3 1612 588.5L1664 595.9 1642.9 611.3 1620.6 608.4C1618.2 608.2 1617 609.3 1616.4 610.7 1616.4 610.7 1616.1 611.3 1616.1 611.3 1615.9 613.7 1617.7 615.3 1619.1 615.8L1634.6 617.5 1619.2 628.9C1619 629.6 1618.7 630.2 1618.4 630.9 1618.1 631.6 1618.2 633.3 1618.6 634.3 1620.4 635.8 1622.4 636.7 1624 634.9L1639.3 623.6 1636.9 638.8C1636.8 641.1 1638.5 642.7 1639.9 643.3 1642.3 643.4 1643.8 641.7 1644.7 639.6L1647.6 617.3 1668 601.6 1661 652.9C1660.8 655.3 1662.3 657.5 1663.9 657.4 1666.3 657.6 1668.2 656.8 1668.4 654.5Z" fill="rgba(51, 121, 194, 0.58)"></path><path d="M556.7 872L580 890.6 563.5 897.9C561.7 898.5 560.5 900.9 561 903.6 562.5 905.5 564.9 906.7 566.8 905.2L587.8 896.8 606.6 910.5 562.9 928C561 929.4 559.8 931.8 560.5 933.6 561.8 936.4 564.2 937.6 566.2 936.1L614.4 916.8 642.5 938.6 603.1 949.7 638.2 970.7 605.3 984.4 563.9 953C564 952.2 563.2 952.1 562.3 952 560.6 951.7 558.8 952.4 557.7 953.9 556.7 955.5 557.2 958.2 558.6 960.1L596.2 988.4 574.4 996.6 556.4 983C555.7 982.1 554.9 982 554 981.9 553.2 981.7 551.4 982.4 550.3 983.9 549.2 985.5 549.7 988.2 551.3 989.2L565.3 1000.6 537.9 1012.4C535.2 1012.9 534.9 1015.5 535.4 1018.1 536 1019.9 538.4 1021.1 541.2 1019.7L568.5 1008.8 566.1 1026.5C565.8 1029.1 568.1 1031.1 569.8 1031.3 572.3 1031.7 574.2 1030.2 574.6 1027.7L577.6 1004.8 599.4 996.5 593.3 1042.2C593 1044.7 594.4 1046.7 597 1047 598.6 1047.2 601.4 1045.9 601.7 1043.3L608.5 992.6 641.4 978.9 631.8 1018.1 667.1 998.7 662.4 1034.2 615 1053.7C612.2 1055.1 611.9 1057.6 612.5 1059.4 613.1 1061.2 615.6 1062.4 618.2 1061.9L661.1 1043.5 658.1 1066.4 637 1075.6C634.4 1076.1 633.2 1078.5 634.6 1081.3 635.2 1083.1 637.6 1084.3 640.4 1082.9L656.7 1076.5 652.8 1106.1C652.4 1108.7 653.9 1110.6 656.4 1110.9S660.9 1109.8 661.2 1107.3L665.2 1077.7 679.3 1088.1C681.6 1090.2 684.2 1089.7 685.3 1088.1 687.3 1085.8 686.8 1083.1 684.4 1081.9L666.5 1067.5 669.6 1044.7 706.2 1073.7C708.6 1074.9 711.2 1074.3 712.3 1072.8 714.3 1070.5 713.8 1067.8 711.4 1066.6L670.8 1035.4 675.6 999.8 704.6 1027.8 705.6 987.5 733.7 1009.3 726.9 1060.1C726.6 1062.6 728.9 1064.7 730.6 1064.9 733.1 1065.2 735 1063.8 735.4 1061.2L741.6 1014.7 760.3 1029.3 757.3 1052.1C756.9 1054.6 758.4 1056.5 760.9 1056.9 762.6 1057.1 765.4 1055.8 765.7 1053.2L768.1 1035.5 791.6 1053.2C793.9 1055.3 796.5 1054.8 797.7 1052.3 798.8 1050.8 799.1 1048.2 796.7 1047L773.4 1028.4 789.8 1021.2C791.6 1020.5 792.8 1018.1 792.2 1016.3 791.6 1014.5 790 1013.4 789.1 1013.3 788.3 1013.2 787.5 1013.1 786.5 1013.8L765.6 1022.2 746.7 1008.5 790.4 991.1C792.3 989.6 793.5 987.2 792.9 985.4 792.3 983.6 790.7 982.5 789 982.3 788.1 982.2 788.1 982.2 787.2 982.9L739 1002.3 710.9 980.5 750.3 969.4 715.2 948.3 748 934.6 789.4 966C791 967.1 793.6 967.4 795.6 965.1 796.7 963.5 796.2 960.9 794.7 959L757.2 930.7 778.9 922.4 796.9 936C798.4 937.9 801 937.4 803.1 935.1 804.1 933.5 803.6 930.9 802.2 929L788.1 918.5 815.5 906.6C818.1 906.1 818.5 903.6 818 900.9 817.2 900 815.6 898.9 814.8 898.8 814 898.7 813.1 898.6 812.1 899.3L784.8 910.3 787.2 892.5C787.6 890 785.3 888 783.6 887.7L783.6 887.7C781 887.4 779.1 888.9 778.8 891.4L775.7 914.2 753.9 922.5 760.1 876.8C760.4 874.3 758.9 872.4 756.4 872S751.9 873.2 751.6 875.7L744.8 926.5 712 940.1 721.5 901 686.2 920.3 691 884.8 738.3 865.3C741.1 864 741.5 861.4 740.8 859.6 740.2 857.8 737.8 856.6 735.1 857.1L692.3 874.7 695.3 852.7 716.3 843.4C719 842.9 720.1 840.5 718.8 837.7 718.2 835.9 715.7 834.7 713.1 835.3L696.6 842.5 700.6 812.9C700.9 810.4 699.5 808.5 696.9 808.1S692.5 809.3 692.1 811.8L688.2 841.4 674.1 830.9C673.3 829.9 672.5 829.8 671.7 829.7 670 829.5 669 830.2 668 831 666 833.3 666.5 835.9 668.9 837.1L686.8 851.5 683.8 874.4 647.2 845.4C646.3 845.3 645.5 845.2 644.6 845 642.9 844.8 642 845.5 641 846.3 639 848.6 639.5 851.2 641.9 852.4L682.5 883.7 677.8 919.2 648.8 891.2 647.7 931.5 619.6 909.7 626.4 859C626.8 856.4 624.4 854.4 622.8 854.2 620.2 853.8 618.3 855.3 618 857.8L611.8 903.5 593 889.8 596.1 867C596.4 864.4 594.9 862.5 592.4 862.2S588 863.3 587.6 865.8L585.2 883.6 561.8 865.8C561.1 864.8 560.2 864.7 559.4 864.6 558.5 864.5 556.7 865.1 555.6 866.7 554.6 868.3 554.2 870.8 556.7 872ZM656.6 910.3L680.2 933.3 709 917.4 701.2 949.9 729.1 966.5 697.7 976.1 696.8 1008.7 673.2 985.7 644.3 1001.7 652 970 624.2 952.5 655.5 943.8 656.6 910.3Z" fill="rgba(51, 121, 194, 0.58)"></path><path d="M257.5 412.3L328.3 409.8 374.1 453.1 313.7 471.2 251.6 437.2C251.6 437.2 250.8 437 250.8 437 249.1 436.6 247.1 437.9 245.8 439.4 244.4 441.6 245.5 444.5 248 445.1L302.3 474.7 273.1 483.5 248.9 470.8C248.9 470.8 248.1 470.6 248.1 470.6 246.4 470.2 244.3 471.5 243.1 472.9 241.7 475.2 242.8 478.1 245.3 478.7L261.5 487.8 239.9 494.1C238 494.5 236.4 497.6 236.8 499.5 237.1 502.2 240.4 503 242.2 502.5L263.9 496.3 254.8 512.5C253.4 514.8 254.4 517.7 256.9 518.3 259.2 519.7 262.1 518.6 262.7 516.1L275.4 492 304.5 484 275 538.4C273.5 540.7 274.6 543.5 277.1 544.1 279.4 545.5 282.3 544.5 282.9 542L316.9 479.9 377.3 461.8 362.5 524.1 301.9 561.4C299.9 562.7 299.3 565.2 300.6 567.2 301.8 569.3 304.3 569.9 306.4 568.6L359.8 535.7 352.7 565.6 330.1 579.5C328 580.8 327.4 583.3 328.7 585.3 330 587.4 332.5 588 334.5 586.7L349.9 577.2 344.4 600.4C343 602.7 345.1 605 347.6 605.6 350.1 606.2 352.1 604.9 352.7 602.4L357.8 580.8 367.3 596.2C368.6 598.3 371.1 598.9 373.2 597.6S375.8 593.9 374.5 591.8L360.6 569.2 367.7 539.3 400.6 592.7C401.9 594.8 404.4 595.4 406.4 594.1 408.5 592.8 409.1 590.4 407.8 588.3L370.5 527.7 385 466.3 430.9 509.6 432.9 578.5C433.2 581.2 435.5 582.6 438 583.2 440.7 582.9 442.1 580.6 442.7 578.2L440.7 516.3 462.9 537.3 463.4 564.7C463.7 567.3 465.9 568.8 468.4 569.4 471.1 569.1 472.5 566.8 472.9 565.2L472.1 546.6 488.6 561.9C490.1 563.1 493.4 563.9 494.8 561.6 496.3 559.3 496.9 556.8 494.6 555.4L478 540.1 496.6 539.2C499.3 539 500.7 536.7 501.1 535 500.7 533.2 499.4 531.1 497.8 530.7 497.8 530.7 497 530.5 497 530.5L469.6 531.1 447.4 510 509.3 508C512 507.8 513.4 505.5 513.8 503.8 513.4 502 512.1 499.9 510.4 499.5 510.4 499.5 509.6 499.3 509.6 499.3L438.9 501.8 393 458.5 453.4 440.4 515.5 474.4C517.8 475.8 520.7 474.8 521.3 472.3 522.7 470 521.6 467.1 519.2 466.5L464.8 436.9 494.1 428.1 518.2 440.9C520.5 442.3 523.4 441.2 524 438.7 525.4 436.4 524.4 433.5 521.9 432.9L505.6 423.8 527.3 417.6C529.1 417.1 530.7 414 530.3 412.1 529.9 410.3 528.4 409.1 526.7 408.7 525.9 408.5 525.1 408.3 524.1 408.9L502.4 415.2 511.5 398.9C512.9 396.6 511.9 393.7 509.4 393.1 509.4 393.1 508.5 393 508.5 393 506.9 392.6 504.8 393.8 503.6 395.3L490.9 419.4 461.6 428.3 491.1 373.9C492.6 371.6 491.5 368.7 489 368.1 489 368.1 488.2 367.9 488.2 367.9 486.5 367.5 484.5 368.8 483.2 370.3L449.2 432.4 388.8 450.5 403.4 389 464 351.7C466 350.4 466.6 347.9 465.3 345.9 464.1 343.8 461.6 343.2 459.5 344.5L406.3 376.6 413.4 346.7 436 332.8C438.1 331.5 438.7 329 437.4 326.9S433.6 324.3 431.6 325.6L416.2 335.1 421.3 313.5C421.9 311 420.6 308.9 418.1 308.3 415.6 307.8 413.6 309 413 311.5L407.9 333.1 398.4 317.7C397.7 316.7 397.1 315.6 395.4 315.2S392.7 315.5 391.7 316.1C389.7 317.4 389.1 319.9 390.3 321.9L404.3 344.5 397.2 374.4 364.3 321C363.6 320 363 318.9 361.3 318.5 360.5 318.3 358.6 318.8 357.6 319.4 355.6 320.7 355 323.2 356.2 325.2L393.6 385.8 379 447.3 333.2 404 330.7 333.2C330.2 331.3 329 329.3 327.3 328.9 327.3 328.9 326.5 328.7 326.5 328.7 323.8 328.9 322.4 331.2 322 332.9L323.9 394.7 301.8 373.7 301.2 346.4C300.8 344.5 299.5 342.5 297.9 342.1 297.9 342.1 297 341.9 297 341.9 294.3 342.1 292.9 344.4 292.5 346.1L293.4 364.7 276.8 349.4C276 349.2 275.4 348.1 274.5 347.9 272.9 347.5 271 348 269.8 349.4 268.4 351.7 267.8 354.2 270.1 355.7L286.6 371 268 371.8C265.3 372.1 263.9 374.4 263.5 376 263.7 378.7 266 380.1 267.7 380.5L295 380 317.2 401 255.3 403C252.6 403.3 251.2 405.6 250.8 407.2 252.7 410.3 254.8 412.5 257.5 412.3Z" fill="rgba(51, 121, 194, 0.58)"></path><path d="M1495.1 252.9L1482.4 260.8 1481.7 251.8C1481.8 250.8 1480.8 249.9 1479.5 249.7 1478.3 250 1477.4 251 1477.7 252.1L1478.2 263.4 1468.5 270 1467.7 246.5C1467.3 245.3 1466.4 244.4 1465.4 244.3 1463.9 244.5 1462.9 245.5 1463.3 246.6L1464.3 272.6 1449.3 282.1 1450.7 261.7 1434.9 274.7 1434 256.9 1455.7 242.7C1456.1 242.9 1456.3 242.5 1456.5 242.1 1456.9 241.4 1456.9 240.4 1456.3 239.7 1455.8 238.9 1454.4 238.7 1453.3 239L1433.7 252 1433.4 240.3 1442.8 234.1C1443.4 234 1443.6 233.6 1443.8 233.2 1444 232.8 1444 231.9 1443.5 231.1 1442.9 230.3 1441.6 230.1 1440.8 230.7L1433.1 235.4 1432.1 220.5C1432.3 219.1 1431.2 218.5 1429.9 218.3 1428.9 218.3 1428 219.3 1428.1 220.8L1428.7 235.5 1420.7 231.4C1419.6 230.8 1418.3 231.5 1417.9 232.3 1417.3 233.4 1417.6 234.6 1418.8 235.2L1429 240.5 1429.3 252.1 1408.8 241.5C1407.6 241 1406.5 241.3 1405.9 242.5 1405.5 243.2 1405.7 244.7 1406.8 245.3L1429.6 257.1 1430.5 274.8 1413.7 263.7 1416.8 283.6 1400.9 275.4 1399.7 249.8C1399.5 248.3 1398.4 247.7 1397.4 247.7 1396.5 247.7 1395.5 248.6 1395.3 250L1396.7 273.3 1386.5 268 1385.7 256.5C1385.9 255.2 1385 254.2 1383.4 254.4 1382.5 254.4 1381.5 255.3 1381.7 256.9L1382 265.6 1368.7 258.8C1367.5 258.2 1366.4 258.6 1365.8 259.7S1365.6 262 1366.7 262.6L1380 269.4 1372.7 274.3C1371.3 275 1371.1 276.4 1371.7 277.1 1372.4 278.5 1373.8 278.7 1374.7 277.8L1384.6 271.8 1394.8 277.1 1375 289.4C1374 290.3 1373.8 291.7 1374.4 292.4 1375.1 293.8 1376.5 294 1377.4 293.1L1399 279.2 1414.9 287.4 1396.8 296.4 1415.6 303.6 1400.6 313.2 1377.9 301.5C1376.7 300.9 1375.4 301.6 1375 302.4 1374.4 303.5 1374.8 304.7 1375.9 305.2L1396.8 316 1386.8 322.4 1376.5 317.1C1375.4 316.5 1374.3 316.9 1373.7 318 1373.3 318.8 1373.5 320.3 1374.6 320.9L1382.6 325 1370.2 333C1368.9 333.8 1368.7 335.1 1369.6 336.1 1370.2 336.9 1371.3 337.4 1372.3 336.5L1385 328.6 1385.6 337.6C1385.6 338.6 1386.6 339.5 1387.5 339.6 1388.5 339.6 1389.2 339 1389.4 338.6 1389.6 338.2 1389.8 337.9 1389.7 337.3L1389.2 326 1398.8 319.5 1399.7 342.9C1400.1 344.1 1401 345.1 1402 345.1 1402.9 345.1 1403.7 344.5 1404.1 343.8 1404.3 343.4 1404.3 343.4 1404.1 342.8L1403.1 316.8 1418.1 307.3 1416.7 327.7 1432.5 314.7 1433.4 332.5 1411.7 346.7C1410.9 347.3 1410.3 348.4 1411.1 349.8 1411.6 350.5 1413 350.7 1414.1 350.4L1433.7 337.5 1434 349.1 1424.5 355.3C1423.4 355.6 1423.2 357 1423.9 358.3 1424.5 359.1 1425.8 359.3 1427 358.9L1434.3 354.1 1435.2 369C1435 370.3 1436.2 370.9 1437.5 371.1 1438.1 370.9 1438.9 370.3 1439 370 1439.2 369.6 1439.4 369.2 1439.3 368.6L1438.7 353.9 1446.6 358C1447.8 358.6 1449.1 357.9 1449.5 357.1L1449.5 357.1C1450.1 356 1449.7 354.8 1448.6 354.2L1438.4 349 1438.1 337.3 1458.6 347.9C1459.7 348.5 1460.9 348.1 1461.5 347S1461.7 344.7 1460.6 344.1L1437.8 332.4 1436.9 314.6 1453.7 325.7 1450.5 305.8 1466.5 314 1467.7 339.6C1467.8 341.1 1469 341.7 1469.9 341.7 1470.9 341.7 1471.9 340.8 1472.1 339.5L1471 316.4 1480.9 321.4 1481.7 332.9C1481.5 334.2 1482.4 335.2 1483.9 335 1484.9 335 1485.9 334.1 1486.1 332.8L1485.4 323.8 1498.7 330.6C1499.8 331.2 1501 330.9 1501.6 329.7S1501.8 327.4 1500.7 326.8L1487.4 320 1494.7 315.1C1495.3 314.9 1495.5 314.6 1495.7 314.2 1496 313.4 1495.9 312.9 1495.7 312.3 1494.9 310.9 1493.6 310.7 1492.6 311.7L1482.8 317.7 1472.6 312.4 1492.4 300C1492.6 299.6 1492.8 299.3 1493 298.9 1493.4 298.1 1493.2 297.6 1493 297 1492.3 295.6 1490.9 295.4 1490 296.4L1468.4 310.2 1452.5 302 1470.5 293.1 1451.7 285.8 1466.7 276.2 1489.5 288C1490.6 288.6 1492 287.8 1492.4 287 1493 285.9 1492.6 284.8 1491.5 284.2L1471 273.6 1480.6 267.1 1490.8 272.3C1492 272.9 1493.1 272.6 1493.7 271.4S1493.9 269.1 1492.8 268.5L1484.8 264.4 1497.1 256.4C1497.7 256.2 1497.9 255.8 1498.1 255.4 1498.3 255.1 1498.3 254.1 1497.8 253.3 1497.2 252.6 1496.1 252 1495.1 252.9ZM1460.2 293.5L1445.4 300.8 1448.1 317 1434.1 307.9 1421.6 318.2 1422.3 301.8 1407.2 295.9 1421.9 288.6 1419.3 272.4 1432.9 281.3 1445.8 271.2 1444.7 287.4 1460.2 293.5Z" fill="rgba(51, 121, 194, 0.58)"></path><path d="M293.6 845.6L297.6 907.4 261 948.7 243.5 896.3 271.6 841.1C271.6 841.1 271.8 840.4 271.8 840.4 272.1 838.9 270.9 837.2 269.6 836.1 267.5 834.9 265 836 264.6 838.1L240.2 886.5 231.7 861.1 242.2 839.6C242.2 839.6 242.3 838.9 242.3 838.9 242.6 837.4 241.5 835.7 240.2 834.7 238.1 833.5 235.6 834.5 235.2 836.7L227.6 851.1 221.6 832.4C221.1 830.8 218.4 829.4 216.8 829.8 214.4 830.1 213.8 833.1 214.2 834.7L220.3 853.4 205.8 845.9C203.8 844.7 201.3 845.7 200.8 847.9 199.7 850 200.7 852.5 202.9 852.9L224.3 863.4 232.1 888.6 183.8 864.2C181.7 863.1 179.2 864.1 178.8 866.3 177.6 868.3 178.6 870.8 180.8 871.3L236 899.4 253.5 951.7 198.6 940.5 164.3 888.5C163.2 886.7 161 886.2 159.2 887.4 157.4 888.6 157 890.8 158.2 892.5L188.4 938.4 162.1 933 149.3 913.6C148.1 911.8 145.9 911.3 144.1 912.5 142.4 913.7 141.9 915.9 143.1 917.6L151.8 930.9 131.3 926.6C129.3 925.5 127.4 927.4 126.9 929.6 126.5 931.8 127.6 933.5 129.8 934L148.8 937.9 135.6 946.6C133.9 947.7 133.4 949.9 134.6 951.7S137.9 953.9 139.7 952.8L159.1 940 185.4 945.4 139.6 975.6C137.8 976.8 137.4 979 138.5 980.7 139.7 982.5 141.9 982.9 143.6 981.8L195.7 947.5 249.8 958.6 213.1 999.8 152.9 1003.5C150.6 1003.8 149.4 1005.8 148.9 1008 149.2 1010.4 151.3 1011.5 153.5 1012L207.5 1008.6 189.7 1028.6 165.8 1029.8C163.5 1030 162.3 1032.1 161.8 1034.3 162.1 1036.6 164.2 1037.8 165.6 1038.1L181.9 1036.9 168.9 1051.7C167.9 1053.1 167.3 1056 169.3 1057.2 171.4 1058.4 173.6 1058.8 174.8 1056.8L187.7 1041.9 188.9 1058.1C189.2 1060.5 191.3 1061.7 192.7 1062 194.4 1061.5 196.1 1060.4 196.4 1058.9 196.4 1058.9 196.6 1058.2 196.6 1058.2L195.4 1034.3 213.2 1014.3 216.6 1068.4C216.9 1070.7 218.9 1071.9 220.4 1072.2 222 1071.8 223.7 1070.6 224 1069.2 224 1069.2 224.2 1068.4 224.2 1068.4L220.1 1006.6 256.8 965.4 274.2 1017.7 246.1 1072.9C244.9 1075 246 1077.5 248.2 1077.9 250.2 1079.1 252.7 1078.1 253.1 1075.9L277.6 1027.6 286.1 1052.9 275.6 1074.4C274.4 1076.4 275.4 1078.9 277.6 1079.4 279.6 1080.6 282.1 1079.6 282.6 1077.4L290.1 1062.9 296.2 1081.7C296.6 1083.3 299.4 1084.6 301 1084.2 302.6 1083.8 303.6 1082.5 303.9 1081 304.1 1080.3 304.2 1079.5 303.7 1078.6L297.6 1059.9 312.1 1067.4C314.1 1068.6 316.6 1067.6 317 1065.4 317 1065.4 317.2 1064.7 317.2 1064.7 317.5 1063.2 316.3 1061.4 315 1060.4L293.5 1049.9 285 1024.5 333.4 1048.9C335.4 1050.1 337.9 1049.1 338.4 1046.9 338.4 1046.9 338.5 1046.2 338.5 1046.2 338.8 1044.7 337.7 1042.9 336.3 1041.9L281.1 1013.8 263.7 961.4 317.8 972.5 352.1 1024.6C353.3 1026.3 355.5 1026.8 357.2 1025.6 359 1024.4 359.4 1022.3 358.3 1020.5L328.8 974.8 355.1 980.2 367.9 999.6C369.1 1001.4 371.3 1001.8 373 1000.7S375.2 997.3 374.1 995.5L365.3 982.3 384.4 986.2C386.6 986.7 388.3 985.5 388.8 983.3 389.2 981.1 388.1 979.3 385.9 978.9L366.8 975 380.1 966.3C381 965.7 381.8 965.1 382.1 963.6S381.9 961.3 381.3 960.4C380.1 958.7 377.9 958.2 376.2 959.4L356.8 972.2 330.4 966.8 376.3 936.5C377.2 935.9 378 935.4 378.3 933.9 378.5 933.2 378.1 931.6 377.5 930.7 376.3 928.9 374.1 928.5 372.4 929.6L320.3 963.9 266.2 952.8 302.9 911.6 364.7 907.5C366.3 907 368.1 905.9 368.4 904.4 368.4 904.4 368.5 903.7 368.5 903.7 368.2 901.3 366.2 900.2 364.7 899.9L310.7 903.2 328.5 883.3 352.4 882.1C354 881.7 355.8 880.5 356.1 879 356.1 879 356.2 878.3 356.2 878.3 355.9 875.9 353.9 874.8 352.4 874.5L336.2 875.7 349.1 860.8C349.3 860.1 350.2 859.5 350.3 858.8 350.6 857.3 350.2 855.7 348.9 854.7 346.8 853.5 344.6 853 343.4 855.1L330.5 870 329.2 853.7C329 851.4 326.9 850.2 325.5 849.9 323.1 850.2 321.9 852.2 321.6 853.7L322.8 877.5 305 897.5 301.6 843.5C301.3 841.1 299.3 839.9 297.8 839.6 295.2 841.4 293.3 843.3 293.6 845.6Z" fill="rgba(51, 121, 194, 0.58)"></path><path d="M1274.3 894.4L1275.2 909.3 1267 905.6C1266.1 905.1 1264.8 905.5 1264 906.6 1263.8 907.8 1264.2 909.1 1265.4 909.3L1275.5 914.2 1276.7 925.8 1255.6 915.5C1254.4 915.2 1253.1 915.6 1252.7 916.4 1252.1 917.9 1252.5 919.2 1253.7 919.4L1277 930.8 1278.3 948.5 1261 937.6 1265 957.7 1248.9 950.1 1246.6 924.2C1247 924 1246.7 923.6 1246.5 923.3 1246 922.6 1245.2 922.1 1244.2 922.2 1243.3 922.4 1242.5 923.5 1242.3 924.6L1244.4 948 1234 942.8 1233 931.5C1233.1 930.9 1232.9 930.6 1232.6 930.2 1232.4 929.9 1231.6 929.4 1230.6 929.5 1229.7 929.7 1228.9 930.8 1229 931.7L1229.5 940.7 1215.9 934.5C1214.8 933.7 1213.8 934.4 1212.9 935.5 1212.5 936.3 1212.9 937.6 1214.3 938.2L1227.5 944.6 1220.1 949.7C1219.1 950.4 1219.1 952 1219.6 952.7 1220.3 953.7 1221.5 953.9 1222.5 953.2L1232 946.7 1242.4 952 1223.4 965C1222.4 965.8 1222.2 966.9 1222.9 968 1223.4 968.7 1224.8 969.3 1225.8 968.5L1246.9 954 1263 961.6 1245.3 971.2 1264.3 977.8 1249.6 988 1226.4 976.9C1225 976.4 1224 977.1 1223.5 977.9 1223 978.8 1223.4 980.1 1224.5 980.9L1245.7 990.6 1236.2 997.2 1225.7 992.5C1224.6 991.6 1223.3 992 1222.8 993.4 1222.3 994.3 1222.7 995.6 1224.1 996.1L1232 1000.1 1219.7 1008.5C1218.6 1009.2 1218.4 1010.4 1219.1 1011.5S1221 1012.8 1222.1 1012L1234.4 1003.6 1235.2 1012.3C1235.3 1013.9 1236.3 1014.7 1237.3 1014.5 1238.8 1014.5 1239.6 1013.4 1239.3 1012.1L1238.6 1000.7 1248.1 994.1 1249.6 1017.4C1250 1018.7 1251.1 1019.6 1252 1019.4 1253.6 1019.4 1254.4 1018.3 1254 1017L1252 991.5 1266.7 981.3 1266.1 1001.5 1281.4 988.3 1282.7 1006.1 1261.6 1020.6C1260.6 1021.3 1260.6 1022.8 1261.1 1023.6 1261.8 1024.6 1263 1024.8 1264 1024.1L1283.4 1010.8 1284.3 1022.6 1274.8 1029.2C1273.7 1029.9 1273.5 1031.1 1274.2 1032.1 1274.7 1032.8 1276.1 1033.4 1277.2 1032.7L1284.6 1027.6 1285.8 1042.3C1285.9 1043.8 1286.9 1044.6 1288.2 1044.2 1289.2 1044.1 1290.2 1043.4 1289.9 1042.1L1288.9 1027.2 1297.2 1030.8C1298 1031.3 1299.3 1030.9 1299.7 1030.1 1300.2 1029.3 1300.1 1028.3 1299.8 1028 1299.6 1027.6 1299.4 1027.3 1298.8 1027.2L1288.6 1022.2 1287.4 1010.6 1308.5 1021C1309.7 1021.2 1311 1020.8 1311.4 1020 1311.9 1019.2 1311.8 1018.2 1311.3 1017.5 1311 1017.2 1311 1017.2 1310.4 1017L1287.1 1005.7 1285.8 987.9 1303.1 998.8 1299.1 978.7 1315.2 986.3 1317.5 1012.2C1317.6 1013.2 1318.3 1014.2 1319.9 1014.2 1320.8 1014.1 1321.6 1013 1321.9 1011.8L1319.7 988.4 1330.1 993.7 1331.1 1004.9C1330.9 1006.1 1332 1006.9 1333.5 1006.9 1334.4 1006.8 1335.3 1005.7 1335.5 1004.5L1334.6 995.8 1348.2 1001.9C1349.3 1002.8 1350.4 1002 1351.2 1001 1351.3 1000.4 1351.1 999.4 1350.9 999.1 1350.7 998.7 1350.4 998.4 1349.8 998.3L1336.6 991.8 1344 986.7C1345 986 1345 984.5 1344.5 983.8L1344.5 983.8C1343.8 982.7 1342.6 982.5 1341.6 983.2L1332.1 989.8 1321.7 984.5 1340.7 971.4C1341.7 970.7 1342 969.5 1341.2 968.4S1339.3 967.2 1338.3 967.9L1317.2 982.4 1301.1 974.8 1318.8 965.2 1299.8 958.6 1314.6 948.5 1337.7 959.5C1339.1 960.1 1340.2 959.3 1340.6 958.5 1341.1 957.7 1340.7 956.4 1339.6 955.6L1318.8 945.6 1327.9 939.3 1338.4 944C1339.5 944.8 1340.8 944.4 1341.3 943 1341.8 942.2 1341.4 940.9 1340.4 940L1332.1 936.4 1344.4 927.9C1345.5 927.2 1345.7 926 1345 924.9S1343.1 923.7 1342 924.4L1329.7 932.9 1328.9 924.1C1329 923.5 1328.8 923.2 1328.5 922.8 1328 922.1 1327.4 922 1326.8 921.9 1325.3 921.9 1324.5 923 1324.9 924.3L1325.5 935.8 1316 942.3 1314.5 919C1314.2 918.6 1314 918.3 1313.8 917.9 1313.3 917.2 1312.7 917.1 1312.1 917 1310.6 917 1309.7 918.1 1310.1 919.4L1312.1 944.9 1297.4 955.1 1298 935 1282.7 948.1 1281.4 930.4 1302.5 915.9C1303.5 915.1 1303.5 913.6 1303 912.9 1302.3 911.8 1301.1 911.6 1300.1 912.3L1281.1 925.4 1279.9 913.8 1289.3 907.3C1290.4 906.6 1290.6 905.4 1289.9 904.3S1288 903 1286.9 903.8L1279.5 908.8 1278.3 894.2C1278.4 893.6 1278.1 893.2 1277.9 892.9 1277.7 892.5 1276.8 892.1 1275.9 892.2 1274.9 892.3 1273.9 893.1 1274.3 894.4ZM1293.5 944.3L1293 960.7 1308.5 966.1 1293.9 974.1 1297 990 1283 981.6 1270.6 992.2 1271.2 975.7 1255.6 970.4 1269.9 962.6 1267.1 946.4 1280.8 955.1 1293.5 944.3Z" fill="rgba(51, 121, 194, 0.58)"></path><path d="M1284.9 96.7L1272.1 104.3 1271.6 95.4C1271.7 94.4 1270.7 93.4 1269.4 93.2 1268.2 93.5 1267.3 94.5 1267.6 95.6L1267.9 106.9 1258.1 113.3 1257.7 89.8C1257.3 88.6 1256.4 87.7 1255.4 87.6 1253.9 87.8 1252.9 88.7 1253.3 89.9L1253.9 115.8 1238.7 125.1 1240.4 104.8 1224.4 117.5 1223.8 99.7 1245.7 85.8C1246.1 86 1246.3 85.7 1246.5 85.3 1246.9 84.5 1247 83.6 1246.4 82.8 1245.9 82 1244.5 81.8 1243.4 82.1L1223.5 94.7 1223.5 83.1 1233 77.1C1233.6 76.9 1233.8 76.5 1234 76.1 1234.2 75.8 1234.2 74.8 1233.7 74 1233.1 73.2 1231.8 73 1231 73.6L1223.3 78.1 1222.5 63.2C1222.8 61.9 1221.6 61.3 1220.3 61 1219.4 61 1218.4 61.9 1218.5 63.5L1218.9 78.2 1211 73.9C1209.8 73.3 1208.5 74.1 1208.1 74.8 1207.5 75.9 1207.8 77.1 1208.9 77.7L1219.1 83.2 1219.1 94.8 1198.8 83.9C1197.7 83.3 1196.6 83.7 1196 84.8 1195.5 85.5 1195.7 87.1 1196.8 87.7L1219.4 99.8 1220 117.5 1203.4 106.2 1206.2 126.1 1190.4 117.6 1189.6 92C1189.5 90.5 1188.4 89.9 1187.4 89.9 1186.5 89.9 1185.5 90.8 1185.2 92.1L1186.3 115.4 1176.1 110 1175.5 98.5C1175.7 97.2 1174.8 96.2 1173.3 96.3 1172.3 96.3 1171.4 97.2 1171.5 98.8L1171.6 107.6 1158.5 100.5C1157.3 99.9 1156.2 100.2 1155.6 101.4S1155.3 103.7 1156.5 104.3L1169.6 111.3 1162.2 116.1C1160.9 116.8 1160.6 118.1 1161.2 118.9 1161.9 120.3 1163.2 120.5 1164.2 119.6L1174.1 113.7 1184.3 119.2 1164.3 131.2C1163.3 132.1 1163.1 133.5 1163.6 134.2 1164.3 135.6 1165.7 135.8 1166.6 134.9L1188.4 121.4 1204.2 129.9 1186 138.5 1204.7 146.1 1189.5 155.4 1167 143.3C1165.8 142.7 1164.5 143.4 1164.1 144.2 1163.5 145.3 1163.8 146.5 1165 147.1L1185.6 158.2 1175.5 164.4 1165.4 158.9C1164.3 158.3 1163.1 158.7 1162.5 159.8 1162.1 160.5 1162.2 162.1 1163.4 162.7L1171.3 166.9 1158.8 174.8C1157.5 175.5 1157.2 176.8 1158.2 177.8 1158.7 178.6 1159.8 179.2 1160.8 178.3L1173.6 170.6 1174.1 179.6C1174.1 180.6 1175 181.5 1176 181.6 1176.9 181.6 1177.7 181 1177.9 180.7 1178.1 180.3 1178.3 179.9 1178.2 179.3L1177.9 168.1 1187.6 161.7 1188.1 185.2C1188.5 186.3 1189.4 187.3 1190.3 187.3 1191.3 187.3 1192.1 186.8 1192.5 186 1192.7 185.7 1192.7 185.7 1192.5 185.1L1191.9 159.1 1207.1 149.8 1205.3 170.2 1221.4 157.5 1222 175.2 1200 189.1C1199.2 189.7 1198.6 190.8 1199.4 192.2 1199.9 192.9 1201.2 193.2 1202.4 192.8L1222.2 180.2 1222.3 191.9 1212.7 197.9C1211.6 198.2 1211.4 199.6 1212.1 200.9 1212.6 201.7 1214 201.9 1215.1 201.6L1222.5 196.8 1223.2 211.7C1223 213.1 1224.1 213.7 1225.5 213.9 1226 213.7 1226.8 213.2 1227 212.8 1227.2 212.4 1227.4 212.1 1227.2 211.5L1226.9 196.8 1234.8 201C1235.9 201.6 1237.3 200.9 1237.7 200.1L1237.7 200.1C1238.3 199 1237.9 197.8 1236.8 197.2L1226.7 191.8 1226.6 180.2 1246.9 191C1248.1 191.6 1249.2 191.3 1249.8 190.2S1250.1 187.9 1248.9 187.3L1226.4 175.2 1225.7 157.4 1242.4 168.8 1239.5 148.8 1255.3 157.3 1256.1 182.9C1256.3 184.4 1257.4 185 1258.4 185.1 1259.3 185.1 1260.3 184.2 1260.5 182.8L1259.8 159.7 1269.6 165 1270.2 176.4C1270 177.8 1270.9 178.8 1272.5 178.6 1273.4 178.6 1274.4 177.7 1274.6 176.4L1274.1 167.4 1287.3 174.4C1288.4 175.1 1289.6 174.7 1290.2 173.6S1290.4 171.3 1289.3 170.7L1276.2 163.6 1283.5 158.9C1284.1 158.7 1284.3 158.3 1284.5 158 1284.9 157.2 1284.8 156.6 1284.6 156 1283.9 154.7 1282.5 154.5 1281.5 155.4L1271.6 161.2 1261.5 155.8 1281.5 143.7C1281.7 143.4 1281.9 143 1282.1 142.6 1282.5 141.9 1282.3 141.3 1282.2 140.7 1281.4 139.3 1280.1 139.1 1279.1 140L1257.4 153.5 1241.6 145.1 1259.8 136.4 1241.1 128.8 1256.2 119.5 1278.8 131.6C1279.9 132.2 1281.3 131.5 1281.7 130.8 1282.3 129.6 1281.9 128.5 1280.8 127.9L1260.5 117 1270.2 110.6 1280.4 116C1281.5 116.6 1282.7 116.3 1283.3 115.2S1283.5 112.9 1282.4 112.3L1274.5 108 1286.9 100.2C1287.5 100 1287.7 99.6 1287.9 99.3 1288.1 98.9 1288.2 97.9 1287.6 97.1 1287.1 96.4 1285.9 95.8 1284.9 96.7ZM1249.4 136.7L1234.5 143.7 1236.9 160 1223.1 150.7 1210.4 160.8 1211.4 144.4 1196.3 138.2 1211.2 131.2 1208.8 114.9 1222.3 124.1 1235.4 114.2 1234 130.3 1249.4 136.7Z" fill="rgba(51, 121, 194, 0.58)"></path></g><defs><mask id="SvgjsMask1242"><rect width="1920" height="1080" fill="#ffffff"></rect></mask><linearGradient x1="10.94%" y1="-19.44%" x2="89.06%" y2="119.44%" gradientUnits="userSpaceOnUse" id="SvgjsLinearGradient1243"><stop stop-color="#0e2a47" offset="0"></stop><stop stop-color="rgba(0, 158, 138, 1)" offset="1"></stop></linearGradient><filter id="SvgjsFilter1244"><feGaussianBlur stdDeviation="1"></feGaussianBlur></filter></defs></svg>